<svg xmlns="http://www.w3.org/2000/svg" viewBox="0 0 800 500">
  <rect width="800" height="500" fill="#EDE6D8"/>
  <polygon points="160,160 280,160 230,250 210,250 160,160" fill="#264E36"/>
  <rect x="190" y="250" width="60" height="40" fill="#3B6B4A"/>
  <rect x="170" y="290" width="100" height="18" fill="#264E36"/>
  <g fill="#F7F3EA" stroke="#264E36" stroke-width="2">
    <rect x="200" y="120" width="28" height="20" rx="3" transform="rotate(-18 214 130)"/>
    <rect x="230" y="108" width="28" height="20" rx="3" transform="rotate(12 244 118)"/>
    <rect x="250" y="140" width="28" height="20" rx="3"/>
    <rect x="300" y="200" width="28" height="20" rx="3" transform="rotate(-10 314 210)"/>
    <rect x="340" y="188" width="28" height="20" rx="3" transform="rotate(8 354 198)"/>
    <rect x="380" y="205" width="28" height="20" rx="3"/>
  </g>
  <path d="M270 230 C340 210,400 250,460 230" fill="none" stroke="#264E36" stroke-width="3" stroke-dasharray="5 6"/>
  <rect x="470" y="250" width="120" height="24" fill="#3B6B4A"/>
  <rect x="480" y="230" width="100" height="20" fill="#264E36"/>
  <circle cx="510" cy="200" r="28" fill="#264E36"/>
  <circle cx="555" cy="215" r="20" fill="#3B6B4A"/>
  <circle cx="510" cy="200" r="10" fill="#EDE6D8"/>
  <circle cx="555" cy="215" r="7" fill="#EDE6D8"/>
  <path d="M590 230 C630 230,650 230,680 230" fill="none" stroke="#264E36" stroke-width="3" stroke-dasharray="5 6"/>
  <ellipse cx="700" cy="175" rx="48" ry="16" fill="#264E36"/>
  <rect x="652" y="175" width="96" height="90" fill="#264E36"/>
  <ellipse cx="700" cy="265" rx="48" ry="16" fill="#3B6B4A"/>
  <ellipse cx="700" cy="205" rx="48" ry="12" fill="#F7F3EA"/>
  <ellipse cx="700" cy="235" rx="48" ry="12" fill="#F7F3EA"/>
</svg>
